HIERARCHY
ROOT pelvis
{
  OFFSET 0 100 0
  CHANNELS 6 Xposition Yposition Zposition Zrotation Xrotation Yrotation
  JOINT pelvis_right_femur
  {
    OFFSET -10.78128 -3.44521 -0.5502486
    CHANNELS 3 Zrotation Xrotation Yrotation
    JOINT right_femur_tibia
    {
      OFFSET -0.8047443 -44.0398 -0.1307829
      CHANNELS 3 Zrotation Xrotation Yrotation
      JOINT right_tibia_foot
      {
        OFFSET 3.006224 -47.83518 -5
        CHANNELS 3 Zrotation Xrotation Yrotation
        End Site
        {
          OFFSET 0 -5 15
        }
      }
    }
  }
  JOINT pelvis_left_femur
  {
    OFFSET 10.78128 -3.44521 -0.5502486
    CHANNELS 3 Zrotation Xrotation Yrotation
    JOINT left_femur_tibia
    {
      OFFSET 0.8047443 -44.0398 -0.1307829
      CHANNELS 3 Zrotation Xrotation Yrotation
      JOINT left_tibia_foot
      {
        OFFSET -4.370144 -48.10324 -4.275266
        CHANNELS 3 Zrotation Xrotation Yrotation
        End Site
        {
          OFFSET 0 -5 15
        }
      }
    }
  }
  JOINT pelvis_spine1
  {
    OFFSET 0 6.468898 -3.129235
    CHANNELS 3 Zrotation Xrotation Yrotation
    JOINT spine1
    {
      OFFSET 0 23.15396 4.99043
      CHANNELS 3 Zrotation Xrotation Yrotation
      JOINT spine2
      {
        OFFSET 0 20.79997 -5.064912
        CHANNELS 3 Zrotation Xrotation Yrotation
        JOINT neck
        {
          OFFSET 0 14.38658 9.616178
          CHANNELS 3 Zrotation Xrotation Yrotation
          End Site
          {
            OFFSET 0 20 0
          }
        }
      }
      JOINT right_manubrium
      {
        OFFSET -5.722621 16.35077 3.967754
        CHANNELS 3 Zrotation Xrotation Yrotation
        JOINT right_clavicle
        {
          OFFSET -13.16364 1.694482 -4.693211
          CHANNELS 3 Zrotation Xrotation Yrotation
          JOINT right_humerus
          {
            OFFSET -28.5034 -0.3100689 -2.792744
            CHANNELS 3 Zrotation Xrotation Yrotation
            JOINT right_radius
            {
              OFFSET -25.15693 0.02248979 -1.271978
              CHANNELS 3 Zrotation Xrotation Yrotation
              End Site
              {
                OFFSET -15 0 0
              }
            }
          }
        }
      }
      JOINT left_manubrium
      {
        OFFSET 5.722621 16.35077 3.967754
        CHANNELS 3 Zrotation Xrotation Yrotation
        JOINT left_clavicle
        {
          OFFSET 13.16364 1.694482 -4.693211
          CHANNELS 3 Zrotation Xrotation Yrotation
          JOINT left_humerus
          {
            OFFSET 29.39168 -1.063119 -2.237045
            CHANNELS 3 Zrotation Xrotation Yrotation
            JOINT left_radius
            {
              OFFSET 24.59957 -0.9528479 0.9047498
              CHANNELS 3 Zrotation Xrotation Yrotation
              End Site
              {
                OFFSET 15 -0 -0
              }
            }
          }
        }
      }
    }
  }
}
MOTION
Frames: 9
Frame Time: 0.0416666666667
0 103.5113 0 2.939591 0.3771656 0.1078322 2.466331 -15.29726 11.48138 -0 37.55628 -0 -3.495472 -17.72296 -3.222593 -9.320594 8.580701 -22.76907 -0 4.073837 -0 21.3737 -8.539816 29.34961 -1.721895 -1.586349 5.063978 2.429642 10.78769 -7.010223 1.746034 21.24794 5.763304 3.297041 -25.68326 8.649961 5.211241 -19.0632 10.95175 86.88445 34.86787 -19.18007 -0 0 13.09927 -9.039464 8.955836 4.608413 5.727784 -20.67789 -3.104148 -92.62922 22.62138 21.00924 0 0 -15.72984 13.01804 13.68228 -0.1943401
0.4052743 104.0846 1.57686 2.021214 1.19712 0.1762895 3.951461 -18.00389 12.12155 -0 38.2011 -0 -4.116319 -16.83167 -3.090915 -8.776678 8.351039 -22.49646 -0 4.501678 -0 21.37941 -9.513832 29.88453 -1.686433 -1.463851 5.058044 2.47539 10.79549 -7.059991 1.693781 21.20963 5.764911 3.292751 -25.6698 8.541976 5.147009 -18.97936 11.04071 86.94208 34.86937 -19.17452 -0 0 12.88833 -9.229857 9.004991 4.790075 5.679355 -20.69413 -3.054505 -92.36543 22.41114 20.76039 0 0 -15.98994 12.9125 13.45396 -0.2167498
0.6517984 103.2665 5.44919 0.9490033 -2.176526 0.3732272 1.633179 -26.92304 -4.665455 -0 14.27919 -0 -9.84694 -2.37702 2.174548 -6.640184 14.3195 -14.4258 -0 8.471657 -0 7.073746 -20.37089 18.20371 -2.060505 -2.3548 4.685931 2.837213 9.849031 -7.270629 1.97719 21.32639 5.83878 2.988612 -26.1735 9.37075 6.238638 -18.64853 10.62135 86.05418 35.07142 -19.83775 -0 0 13.34145 -6.470085 8.349345 4.345955 5.414071 -19.83313 -2.638384 -94.05852 26.80567 22.1061 0 0 -16.47311 9.431427 15.06298 4.793204
0.8045659 102.7424 10.06043 0.4454766 -1.072559 0.5616133 2.331095 -30.36266 -4.367131 -0 10.89194 -0 -9.289517 0.2779341 1.417151 -6.283345 15.01473 -12.47621 -0 10.68608 -0 5.583977 -21.40343 16.49128 -2.155407 -2.529797 4.347139 3.105121 9.428561 -7.454319 2.001036 21.37498 5.899337 2.84508 -26.39024 9.573381 6.519423 -18.41255 10.62512 85.82212 34.99864 -20.02273 -0 0 13.17372 -5.762268 8.06348 4.532463 5.105462 -19.36731 -2.48902 -94.31724 28.15581 22.22758 0 0 -16.75873 7.795084 15.39066 6.664598
1.006462 102.6951 14.15008 -0.6986456 1.73903 0.8348712 5.393794 -33.86895 0.7244357 -0 15.9403 -0 -9.112251 -1.861056 1.111784 -5.885828 13.92826 -14.95888 -0 10.401 -0 7.517348 -21.72318 18.82937 -2.218905 -2.602224 3.731918 3.570086 8.841061 -7.751506 1.944688 21.4277 6.057949 2.674635 -26.79384 9.787063 6.731568 -18.05647 10.75735 85.57553 34.75063 -20.11533 -0 0 12.77566 -5.24689 7.722161 5.026951 4.591204 -18.68866 -2.270364 -94.34258 29.27336 22.08029 0 0 -16.77687 5.913193 15.58574 8.502541
1.250093 102.7049 17.88953 -1.229294 2.660407 1.125382 6.935666 -34.4761 3.288197 -0 19.58117 -0 -9.163078 -3.20569 1.083959 -5.716956 12.98026 -16.42714 -0 10.03426 -0 8.989094 -21.39251 20.65389 -2.301308 -2.655792 3.398485 3.835496 8.443766 -7.934507 1.88846 21.49717 6.127101 2.559515 -26.97949 9.850277 6.818548 -17.8684 10.83648 85.45736 34.49441 -20.26782 -0 0 12.67649 -4.856432 7.415531 5.233254 4.269306 -18.31266 -2.200805 -94.5031 30.25967 22.18511 0 0 -16.92841 4.318024 15.74387 10.11867
1.515371 102.6877 21.49024 -1.26215 2.704108 1.359472 7.098555 -34.1788 3.815023 -0 20.61857 -0 -9.05899 -3.763852 0.9959903 -5.746413 12.71045 -16.81783 -0 9.684452 -0 9.438811 -21.2073 21.23764 -2.431499 -2.683258 3.246785 3.951542 8.178403 -8.033251 1.837991 21.60531 6.105281 2.480386 -26.90021 9.750413 6.877763 -17.74772 10.88411 85.39617 34.31433 -20.45318 -0 0 12.68522 -4.574172 7.139609 5.336302 4.022609 -18.10132 -2.302867 -94.7051 31.35998 22.40496 0 0 -17.3723 2.627291 15.82292 11.93303
1.794877 102.6391 25.04142 -1.154759 2.527651 1.563258 6.861688 -33.76882 3.645067 -0 20.68832 -0 -8.983088 -3.975565 0.9580075 -5.823719 12.70137 -16.83554 -0 9.44151 -0 9.553126 -21.10439 21.33157 -2.507815 -2.55196 3.220806 3.975265 8.089018 -8.074527 1.756216 21.6665 6.064081 2.489069 -26.62809 9.466282 6.90247 -17.58888 10.97703 85.36537 34.33141 -20.51536 -0 0 12.52112 -4.784278 7.149992 5.595089 3.855703 -18.09044 -2.466731 -94.55301 31.85163 22.31199 0 0 -17.92152 1.479191 15.62543 13.15171
2.090082 102.601 28.53434 -1.134255 2.485263 1.758481 6.816034 -33.50648 3.784514 -0 20.98608 -0 -8.857778 -4.247266 0.8431476 -5.846452 12.63399 -16.97462 -0 9.229986 -0 9.51814 -21.10495 21.48615 -2.60263 -2.454178 3.196196 3.962614 8.014563 -8.087896 1.689037 21.74992 6.037314 2.507835 -26.34091 9.227108 6.920347 -17.48088 11.04431 85.33101 34.34881 -20.53613 -0 0 12.44454 -5.016036 7.157729 5.816733 3.714531 -18.06575 -2.625336 -94.47415 32.36141 22.29191 0 0 -18.33976 0.4059155 15.4765 14.29885
